/* XPM */
static char *dummy[]={
"16 16 2 1",
"# c #990000",
". c #ff9900",
"................",
".######...####..",
".######..#...##.",
".#....#..#...##.",
".........#..#.#.",
".........#..#.#.",
"..#..#...#..#.#.",
"..####...#..#.#.",
"..####...#.#..#.",
"..#..#...#.#..#.",
".........#.#..#.",
".........#.#..#.",
".#....#..##...#.",
".######..##...#.",
".######...####..",
"................"};
