/* XPM */
static char * xizero_xpm[] = {
"16 16 3 1",
" 	c #FFFFFF",
".	c #800000",
"+	c #FF0000",
"     ......     ",
"   ..++++++..   ",
"  .++......++.  ",
" .+.. ++++ ..+. ",
" .+.  +..+  .+. ",
".+.   +..+   .+.",
".+.++++..++++.+.",
".+.+........+.+.",
".+.+........+.+.",
".+.++++..++++.+.",
".+.   +..+   .+.",
" .+.  +..+  .+. ",
" .+.. ++++ ..+. ",
"  .++......++.  ",
"   ..++++++..   ",
"     ......     "};
